# Blender v2.78 (sub 0) OBJ File: ''
# www.blender.org
v 1.000000 -1.000000 -1.000000
v 1.000000 -1.000000 1.000000
v -1.000000 -1.000000 1.000000
v -1.000000 -1.000000 -1.000000
v 1.000000 1.000000 -0.999999
v 0.999999 1.000000 1.000001
v -1.000000 1.000000 1.000000
v -1.000000 1.000000 -1.000000
vt 0.0001 0.5000
vt 0.2500 0.2500
vt 0.2500 0.5000
vt 0.5000 0.2500
vt 0.7500 0.5000
vt 0.5000 0.5000
vt 0.7500 0.7500
vt 0.5000 0.7500
vt 0.9999 0.2500
vt 0.9999 0.5000
vt 0.7500 0.0001
vt 0.5000 0.0001
vt 0.0001 0.2500
vt 0.7500 0.2500
vn 0.0000 -1.0000 0.0000
vn 0.0000 1.0000 0.0000
vn 1.0000 -0.0000 0.0000
vn 0.0000 -0.0000 1.0000
vn -1.0000 -0.0000 -0.0000
vn 0.0000 0.0000 -1.0000
s off
f 2/1/1 4/2/1 1/3/1
f 8/4/2 6/5/2 5/6/2
f 5/6/3 2/7/3 1/8/3
f 6/5/4 3/9/4 2/10/4
f 3/11/5 8/4/5 4/12/5
f 1/3/6 8/4/6 5/6/6
f 2/1/1 3/13/1 4/2/1
f 8/4/2 7/14/2 6/5/2
f 5/6/3 6/5/3 2/7/3
f 6/5/4 7/14/4 3/9/4
f 3/11/5 7/14/5 8/4/5
f 1/3/6 4/2/6 8/4/6
